<svg xmlns="http://www.w3.org/2000/svg" viewBox="0 0 235.84 184.95"><defs><style>.cls-1{fill:#231815;}</style></defs><g id="レイヤー_2" data-name="レイヤー 2"><g id="レイヤー_1-2" data-name="レイヤー 1"><path class="cls-1" d="M94.6,159.2c-5.43,1.3-10.8,2.79-14.87,4l-8.47,2.43c-13.74,4-28,8.1-42,10.35l-.91.16-.27,0c3.7-3.29,9.38-7.93,13.62-11.38,14.87-12.12,15.74-13,15.54-16-.45-6.77-10.33-7-25.29-7.27-4.78-.1-9.72-.2-11.7-.62a6.48,6.48,0,0,1-1.29-.43c1.82-1.74,8.68-6.85,14.27-11,24.87-18.54,29.56-22.82,29.56-26.95,0-7.07-7.7-8-10.24-8.33l-.73-.1c-16.16-2.53-38-7.73-43.12-10.7.86-2,6.28-9.23,40.18-24.41,23.22-10.39,49.81-20.12,64.1-25.35l3.44-1.26c6.78-2.49,13-4.66,19.13-6.65,13-4.25,27-8.71,41-12.49A4.24,4.24,0,1,0,174.27,5c-14.2,3.83-28.29,8.33-41.39,12.61-6.19,2-12.55,4.24-19.42,6.76L110,25.67C14.94,60.45-2.61,75,.29,86.11c.78,3,3,5.83,22.39,10.66,9.85,2.45,21.31,4.67,27.79,5.68l1,.13c.38,0,1.07.14,1.72.26-4.43,4.45-17.56,14.24-25.07,19.83-9.4,7-14.38,10.76-16,12.67-2.77,3.29-2.34,6.25-1.84,7.72,1.49,4.38,6.6,5.8,8.13,6.13,2.78.6,7.66.7,13.32.81,3.73.07,9.62.19,13.74.61-2.68,2.29-6.24,5.19-9.18,7.58-18.87,15.39-20.72,17.36-19.82,21.05,1.15,4.68,5.1,5.71,8.56,5.71a26.51,26.51,0,0,0,4.82-.53l.71-.12c14.59-2.34,29.06-6.53,43.05-10.58l8.43-2.42c4-1.13,9.24-2.6,14.52-3.86a4.24,4.24,0,0,0-2-8.24Z"/><path class="cls-1" d="M231.27,134.32l-50.93,2.29c4.07-9.66,13-30.55,26.76-61.7,10.84-24.49,7.71-41.74,3.17-51.89-5-11.27-12.84-16.55-13.17-16.77a4.24,4.24,0,0,0-4.71,7.05c1,.69,24.94,17.58,7,58.18-19.56,44.19-29.32,67.81-29.41,68a4.23,4.23,0,0,0,3.91,5.85H174l57.62-2.59a4.23,4.23,0,1,0-.39-8.46Z"/><path class="cls-1" d="M206.14,7.59c.26.2,25.5,20.41,7.14,68.72l-21.13,47.74a4.24,4.24,0,0,0,3.87,6h.17l35.59-1.46a4.23,4.23,0,1,0-.35-8.46l-28.78,1.18,18.43-41.62a1.8,1.8,0,0,0,.08-.21c20.65-54.2-8.58-77.58-9.84-78.55a4.24,4.24,0,0,0-5.18,6.71Z"/><path class="cls-1" d="M122.05,101.49a12.69,12.69,0,0,0,1.72.32h.3c.31,0,.62.05.94.05h0a14.92,14.92,0,0,0,9.15-3.4,20.87,20.87,0,0,0,7.41-12.68,29.62,29.62,0,0,0,.55-5.6,8.41,8.41,0,0,1,.22-2.09,6,6,0,0,1,1.43.26l.72.19.27.08.6.15.77.19.13,0c5.16,1.22,14.15,2.72,22.53,1l.16,0a26.18,26.18,0,0,0,8.73-3.47,4.24,4.24,0,0,0-4.59-7.12,18.48,18.48,0,0,1-6.48,2.43c-.42.08-.84.16-1.26.22s-1,.13-1.47.18h-.17l-1.6.11H162c-.58,0-1.15,0-1.74,0h0a51,51,0,0,1-7.17-.58l-.36-.06-1.25-.21-.48-.09-1.41-.28L149.1,71l-1.2-.28-.24-.06c-.55-.13-1.08-.27-1.6-.42a14.33,14.33,0,0,0-3.82-.57,8.12,8.12,0,0,0-5.06,1.58c-3.05,2.29-3.46,6.21-3.52,8.2,0,.28,0,.53,0,.72,0,5.11-1.75,9.36-4.71,11.67-1.21,1-4.3,2.88-6.78.28-1.63-1.7-2.29-4.53-2.21-7.5a18,18,0,0,1,2.25-8.36,8.6,8.6,0,0,1,.71-1h0l.06-.06a4.91,4.91,0,0,1,2.36-1.67l.35-.07.12,0a4.38,4.38,0,0,1,2.29.33,1.45,1.45,0,0,1,.22.09A4.65,4.65,0,0,0,129,74a4.22,4.22,0,0,0,3.85-.92l.08-.06a3.85,3.85,0,0,0,.27-.3c.09-.11.2-.21.28-.32l0,0a4,4,0,0,0,.4-.7,4.17,4.17,0,0,0,.38-1.64,3.89,3.89,0,0,0,0-.68s0-.09,0-.13a4.09,4.09,0,0,0-.41-1.19,4.14,4.14,0,0,0-2-2,14.09,14.09,0,0,0-2.09-.74,12.52,12.52,0,0,0-4.14-.43,4,4,0,0,0-1,.08c-8.13,1.71-17.39-.46-21-1.47s-6.63-.68-8.88,1c-3.49,2.63-3.52,7.37-3.53,8.93,0,5.1-1.76,9.36-4.71,11.67-1.21,1-4.3,2.88-6.78.28-3.26-3.4-2.65-11.32,0-15.86,1.11-1.87,3.07-3.82,6.11-2.45a4.23,4.23,0,0,0,3.49-7.71C83,56.49,76.23,58.84,72.46,65.2c-4.38,7.38-5.19,19.43,1.12,26a12.27,12.27,0,0,0,9,3.94,14.92,14.92,0,0,0,9.15-3.4c5.08-4,7.9-10.46,8-18.28a8.52,8.52,0,0,1,.22-2.1,6.89,6.89,0,0,1,1.43.27,67.63,67.63,0,0,0,12.56,2.23,27.08,27.08,0,0,0-2.42,11.32,24.36,24.36,0,0,0,.29,3.53,17,17,0,0,0,4.28,9.2A12.46,12.46,0,0,0,122.05,101.49Z"/></g></g></svg>